<?xml version="1.0" encoding="UTF-8"?>
<svg class="looka-1j8o68f" width="429" height="61.343" viewBox="0 0 342.24 48.936" xmlns="http://www.w3.org/2000/svg">
<g transform="matrix(.30395 0 0 .30395 12 0)" fill="#111" featurekey="T16ghp-0">
<title xmlns="http://www.w3.org/2000/svg">iPhone 14 pro</title>
<g fill="none" fill-rule="evenodd" xmlns="http://www.w3.org/2000/svg">
<g fill="#111" fill-rule="nonzero">
<g transform="translate(50.834)">
<path d="m64.366 0h-50.566c-7.6215 0-13.8 6.1785-13.8 13.8v132.4c0 7.6215 6.1785 13.8 13.8 13.8h50.566c7.6215 0 13.8-6.1785 13.8-13.8v-132.4c0-7.6215-6.1785-13.8-13.8-13.8zm-50.566 2h50.566c6.517 0 11.8 5.283 11.8 11.8v132.4c0 6.517-5.283 11.8-11.8 11.8h-50.566c-6.517 0-11.8-5.283-11.8-11.8v-132.4c0-6.517 5.283-11.8 11.8-11.8z"/>
<path d="m64.174 3.2102h-50.18c-5.9094 0-10.7 4.7906-10.7 10.7v132.18c0 5.9094 4.7906 10.7 10.7 10.7h50.18c5.9094 0 10.7-4.7906 10.7-10.7v-132.18c0-5.9094-4.7906-10.7-10.7-10.7zm-50.18 2h50.18c4.8049 0 8.7 3.8951 8.7 8.7v132.18c0 4.8049-3.8951 8.7-8.7 8.7h-50.18c-4.8049 0-8.7-3.8951-8.7-8.7v-132.18c0-4.8049 3.8951-8.7 8.7-8.7z"/>
<path d="m5.2961 34v11.136c0 18.662 15.128 33.79 33.79 33.79 18.475 0 33.487-14.827 33.785-33.231l0.0045269-0.55878v-11.136h2v11.136c0 19.766-16.024 35.79-35.79 35.79-19.569 0-35.469-15.705-35.785-35.198l-0.0047948-0.59185v-11.136h2z"/>
<path transform="translate(39.086 103.46) scale(1 -1) translate(-39.086 -103.46)" d="m5.2961 80v11.136c0 18.662 15.128 33.79 33.79 33.79 18.475 0 33.487-14.827 33.785-33.231l0.0045269-0.55878v-11.136h2v11.136c0 19.766-16.024 35.79-35.79 35.79-19.569 0-35.469-15.705-35.785-35.198l-0.0047948-0.59185v-11.136h2z"/>
<g transform="translate(23.745 8.4626)">
<path d="m26.517 0h-22.285c-2.3374 0-4.2322 1.8948-4.2322 4.2322s1.8948 4.2322 4.2322 4.2322h22.285c2.3374 0 4.2322-1.8948 4.2322-4.2322s-1.8948-4.2322-4.2322-4.2322zm-22.285 2h22.285c1.2328 0 2.2322 0.9994 2.2322 2.2322s-0.9994 2.2322-2.2322 2.2322h-22.285c-1.2328 0-2.2322-0.9994-2.2322-2.2322s0.9994-2.2322 2.2322-2.2322z"/>
</g>
</g>
<g transform="translate(5.1143 5.1162)">
<path d="m30.331 0h-19.331c-6.0751 0-11 4.9249-11 11v21.13c0 6.0751 4.9249 11 11 11h19.331c6.0751 0 11-4.9249 11-11v-21.13c0-6.0751-4.9249-11-11-11zm-19.331 2h19.331c4.9706 0 9 4.0294 9 9v21.13c0 4.9706-4.0294 9-9 9h-19.331c-4.9706 0-9-4.0294-9-9v-21.13c0-4.9706 4.0294-9 9-9z"/>
<g transform="translate(5.5902 4.9965)">
<path d="m7.3888 0c-3.9991 0-7.2561 3.1771-7.3848 7.1449l-0.0039494 0.307c0 4.0807 3.3081 7.3888 7.3888 7.3888 3.9991 0 7.2561-3.1771 7.3848-7.1449l0.0039494-0.307c0-4.0807-3.3081-7.3888-7.3888-7.3888zm0 2c2.9035 0 5.2707 2.2964 5.3845 5.172l0.0042789 0.27984c0 2.9761-2.4126 5.3888-5.3888 5.3888-2.9035 0-5.2707-2.2964-5.3845-5.172l-0.0042789-0.27984c0-2.9761 2.4126-5.3888 5.3888-5.3888z"/>
</g>
<g transform="translate(21.562 13.743)">
<path d="m7.5884 0c-4.1088 0-7.4549 3.2655-7.5845 7.3428l-0.003899 0.31067c0 4.191 3.3974 7.5884 7.5884 7.5884 4.1088 0 7.4549-3.2655 7.5845-7.3428l0.003899-0.31067c0-4.191-3.3974-7.5884-7.5884-7.5884zm0 2c3.0129 0 5.4689 2.3843 5.5842 5.369l0.0042293 0.28451c0 3.0864-2.502 5.5884-5.5884 5.5884-3.0129 0-5.4689-2.3843-5.5842-5.369l-0.0042292-0.28451c0-3.0864 2.502-5.5884 5.5884-5.5884z"/>
</g>
<g transform="translate(5.5902 23.092)">
<path d="m7.3888 0c-3.9991 0-7.2561 3.1771-7.3848 7.1449l-0.0039494 0.307c0 4.0807 3.3081 7.3888 7.3888 7.3888 3.9991 0 7.2561-3.1771 7.3848-7.1449l0.0039494-0.307c0-4.0807-3.3081-7.3888-7.3888-7.3888zm0 2c2.9035 0 5.2707 2.2964 5.3845 5.172l0.0042789 0.27984c0 2.9761-2.4126 5.3888-5.3888 5.3888-2.9035 0-5.2707-2.2964-5.3845-5.172l-0.0042789-0.27984c0-2.9761 2.4126-5.3888 5.3888-5.3888z"/>
</g>
</g>
<path d="m64.634 0h-50.434l-0.32315 0.003672c-7.7126 0.17858-13.877 6.4787-13.877 14.196v131.9l0.0036947 0.32063c0.1773 7.5481 6.3435 13.579 13.896 13.579h50.734l0.011737-1.9999-0.3065-0.003598c-6.385-0.15011-11.505-5.3849-11.505-11.796v-132.4l0.0035288-0.29476c0.15011-6.385 5.3849-11.505 11.796-11.505v-2zm-50.422 1.9999h43.264l-0.051463 0.031093c-3.863 2.3711-6.4728 6.5914-6.5867 11.439l-0.0038048 0.31826-6.88e-5 132.41 0.0035509 0.316c0.1087 4.8325 2.7043 9.06 6.5647 11.44l0.072773 0.04391h-43.575c-6.4659 0-11.745-5.1636-11.897-11.615l-0.0034187-0.29714v-131.89c0-6.6305 5.2963-12.043 11.912-12.197l0.29999-0.0034038z"/>
</g>
</g>
</g>
<g transform="matrix(.65656 0 0 .65656 57.91 32.124)" fill="#111" featurekey="TflPBd-0">
<path d="m11.4 20.3c-0.33334 0-0.58668-0.14-0.76002-0.42l-7.22-11.44v10.98c0 0.24-0.08334 0.44666-0.25 0.62s-0.37666 0.26-0.63 0.26c-0.24 0-0.44666-0.08666-0.62-0.26s-0.26-0.38-0.26-0.62v-14.02c0-0.24 0.08666-0.44666 0.26-0.62s0.38-0.26 0.62-0.26c0.33334 0 0.58668 0.13334 0.76002 0.4l7.22 11.44v-10.96c0-0.24 0.08334-0.44666 0.25-0.62s0.37666-0.26 0.63-0.26c0.24 0 0.44666 0.08666 0.62 0.26s0.26 0.38 0.26 0.62v14.02c0 0.24-0.08666 0.44666-0.26 0.62s-0.38 0.26-0.62 0.26zm24.278 0-6.88-1.9531e-5c-0.25334 0-0.46668-0.08666-0.64002-0.26s-0.26-0.38-0.26-0.62v-0.04-0.04-13.94c0-0.24 0.08666-0.44666 0.26-0.62s0.38668-0.26 0.64002-0.26h6.88c0.25334 0 0.46668 0.08666 0.64002 0.26s0.26 0.38 0.26 0.62c0 0.25334-0.08666 0.46334-0.26 0.63s-0.38668 0.25-0.64002 0.25h-6v5.1h5.06c0.24 0 0.44666 0.08334 0.62 0.25s0.26 0.37666 0.26 0.63c0 0.24-0.08666 0.44666-0.26 0.62s-0.38 0.26-0.62 0.26h-5.06v5.38h6c0.25334 0 0.46668 0.08666 0.64002 0.26s0.26 0.38668 0.26 0.64002c0 0.24-0.08666 0.44666-0.26 0.62s-0.38668 0.26-0.64002 0.26zm19.778-6.94-2.64-3.9062e-5v6.06c0 0.24-0.08666 0.44666-0.26 0.62s-0.38 0.26-0.62 0.26c-0.25334 0-0.46668-0.08666-0.64002-0.26s-0.26-0.38-0.26-0.62v-14.02c0-0.24 0.08666-0.44666 0.26-0.62s0.38668-0.26 0.64002-0.26h3.52c0.61334 0 1.19 0.11666 1.73 0.35s1.01 0.55 1.41 0.95 0.71666 0.86666 0.95 1.4 0.35 1.1067 0.35 1.72-0.11666 1.1867-0.35 1.72-0.55 1-0.95 1.4-0.87 0.71666-1.41 0.95-1.1167 0.35-1.73 0.35zm0-7.08h-2.64v5.3h2.64c0.36 0 0.70334-0.07 1.03-0.21s0.61-0.33 0.85-0.57 0.43-0.52 0.57-0.84 0.21-0.66 0.21-1.02-0.07-0.70334-0.21-1.03-0.33-0.61-0.57-0.85-0.52334-0.43-0.85-0.57-0.67-0.21-1.03-0.21zm28.898 13.94c-0.10666 0.05334-0.21992 0.08-0.33992 0.08-0.17334 0-0.33668-0.04666-0.49002-0.14s-0.26334-0.22668-0.33-0.40002l-1.58-3.72h-7.26l-1.58 3.72c-0.09334 0.22666-0.25334 0.38666-0.48 0.48s-0.45332 0.08668-0.67998-0.01998c-0.22666-0.09334-0.38666-0.25334-0.48-0.48s-0.08668-0.45332 0.01998-0.67998l1.8-4.26 4.22-9.88c0.06666-0.17334 0.17332-0.30668 0.31998-0.40002s0.31332-0.14 0.49998-0.14c0.17334 0 0.33334 0.04666 0.48 0.14s0.25332 0.22668 0.31998 0.40002c1.0133 2.3734 2.02 4.73 3.02 7.07s2.0066 4.6966 3.02 7.07c0.09334 0.22666 0.09334 0.45332 0 0.67998s-0.25334 0.38666-0.48 0.48zm-6.36-12.68-2.88 6.72h5.74zm27.418 12.76h-5.34c-0.24 0-0.44666-0.08666-0.62-0.26s-0.26-0.38-0.26-0.62v-14.02c0-0.25334 0.08666-0.46334 0.26-0.63s0.38-0.25 0.62-0.25c0.25334 0 0.46334 0.08334 0.63 0.25s0.25 0.37666 0.25 0.63v13.14h4.46c0.25334 0 0.46668 0.08666 0.64002 0.26s0.26 0.38 0.26 0.62-0.08666 0.44666-0.26 0.62-0.38668 0.26-0.64002 0.26z"/>
</g>
<g transform="matrix(1.3704 0 0 1.3704 59 -3.3452)" fill="#111" featurekey="nameLeftFeature-0">
<path d="m4.68 20h-4.68v-14.02h4.68v10.9h-1.56v-9.34h-1.56v10.9h3.12v1.56zm2.8-14.02h11.42c2.14 0 3.88 1.74 3.88 3.9 0 2.14-1.74 3.9-3.88 3.9l-9.86-0.02v4.68h1.56v-3.12h1.54v4.68h-4.66v-7.8l11.42 0.02c1.28 0 2.32-1.06 2.32-2.34 0-1.3-1.04-2.34-2.32-2.34h-9.86v1.56h9.86c0.4 0.02 0.74 0.36 0.74 0.78s-0.32 0.76-0.78 0.78h-0.02-11.36v-4.68zm27.92 4.68v-4.68h4.68v14.02h-4.68v-4.66h-9.06v3.1h1.56v-1.56h1.56v3.12h-4.68v-6.24h12.2v4.68h1.54v-10.9h-1.54v4.68h-9.08v-4.68h-1.56v4.68h-1.56v-6.24h4.68v4.68h5.94zm15.12-5.3c4.2 0 7.62 3.42 7.62 7.64s-3.42 7.62-7.62 7.62c-4.22 0-7.64-3.4-7.64-7.62s3.42-7.64 7.64-7.64zm0 13.72c3.36 0 6.08-2.72 6.08-6.08s-2.72-6.1-6.08-6.1c-3.38 0-6.1 2.74-6.1 6.1s2.72 6.08 6.1 6.08zm0-10.64c2.5 0 4.54 2.06 4.54 4.56s-2.04 4.54-4.54 4.54-4.56-2.04-4.56-4.54 2.06-4.56 4.56-4.56zm0 7.56c1.66 0 3-1.34 3-3 0-1.68-1.34-3.02-3-3.02-1.68 0-3.02 1.34-3.02 3.02 0 1.66 1.34 3 3.02 3zm19.78-3.16v-6.86h4.68v14.02h-4.68l-7.5-8.68v-2.4l8.22 9.52h2.4v-10.9h-1.56v9.5l-8.22-9.5h-2.4v10.9h1.56v-4.72l1.56 1.8v4.48h-4.68v-14.02h4.68zm22.78-6.86v4.68h-10.62v1.56h7.88v1.56h-9.44v-4.68h10.62v-1.56h-12.18v10.9h12.18v-1.56h-10.62v-1.56h12.18v4.68h-15.3v-14.02h15.3z"/>
</g>
<g transform="matrix(1.2807 0 0 1.2807 186 -1.078)" fill="#111" featurekey="nameRightFeature-0">
<path d="m6.25 4.258h3.3887l2.9004 7.4219 2.9004-7.4219 2.9004 7.4219 2.8906-7.4219h3.3984l-6.2891 16.035-2.9297-7.8027-2.8711 7.8027zm19.551 0h3.1543v6.2988h4.7168v-6.2988h3.1543v15.742h-3.1543v-6.2988h-4.7168v6.2988h-3.1543v-15.742zm20.146-0.078c2.1875 0 4.0625 0.78125 5.625 2.3438s2.3438 3.4375 2.3438 5.625-0.78125 4.0625-2.3438 5.6152-3.4375 2.334-5.625 2.334-4.0625-0.78125-5.6152-2.334-2.334-3.4277-2.334-5.6152 0.78125-4.0625 2.334-5.625 3.4277-2.3438 5.6152-2.3438zm0 3.174c-1.3184 0-2.4414 0.46875-3.3691 1.4063s-1.3965 2.0605-1.3965 3.3691c0 1.3184 0.46875 2.4414 1.3965 3.3691s2.0508 1.3965 3.3691 1.3965c1.3086 0 2.4316-0.46875 3.3691-1.3965s1.4063-2.0508 1.4063-3.3691c0-1.3086-0.46875-2.4316-1.4063-3.3691s-2.0605-1.4063-3.3691-1.4063zm9.1211-3.096h3.1543v12.588h6.2891v3.1543h-9.4434v-15.742zm10.615 0h9.4434v3.1445h-6.2891v3.1543h4.7168v3.1445h-4.7168v3.1445h6.2891v3.1543h-6.2891-3.1543v-15.742zm15.586 12.637-0.0097656-0.019531c0.86914 0 1.5918-0.72266 1.5918-1.5918 0-0.67383-0.26367-1.1035-0.80078-1.2988-1.1328-0.41992-0.85938-0.32227-1.9629-0.70313-1.1621-0.40039-2.2363-1.1914-2.959-2.1777-0.42969-0.58594-0.64453-1.3086-0.64453-2.1777 0-1.3086 0.46875-2.4316 1.4063-3.3691s2.0605-1.4063 3.3789-1.4063c1.3086 0 2.4316 0.46875 3.3691 1.4063s1.4063 2.0605 1.4063 3.3691h-3.1738c0-0.85938-0.72266-1.582-1.582-1.582-0.86914 0-1.5918 0.72266-1.5918 1.5918 0 0.56641 0.22461 0.99609 0.68359 1.2891 0.9375 0.60547 0.83008 0.48828 1.9531 0.82031 1.2109 0.35156 2.3047 1.1035 3.0566 2.0703 0.43945 0.56641 0.66406 1.2988 0.66406 2.1875 0 1.3184-0.46875 2.4414-1.4063 3.3789s-2.0605 1.4063-3.3691 1.4063c-1.3184 0-2.4414-0.46875-3.3789-1.4063s-1.4063-2.0605-1.4063-3.3789h3.1836c0 0.87891 0.71289 1.5918 1.5918 1.5918zm10.937-2.0996h2.7832l-1.3867-3.2715zm-1.289 2.7832-0.019531-0.0097656c-0.35156 0.80078-0.71289 1.5918-1.0742 2.3926h-3.3887l7.1387-15.996 7.1582 15.996h-3.3984c-0.35156-0.79102-0.70313-1.5918-1.0547-2.3828h-5.3613zm11.016-13.32h3.1543v12.588h6.2891v3.1543h-9.4434v-15.742zm10.615 0h9.4434v3.1445h-6.2891v3.1543h4.7168v3.1445h-4.7168v3.1445h6.2891v3.1543h-6.2891-3.1543v-15.742z"/>
</g>
</svg>
